<svg width="22" height="14" viewBox="0 0 22 14" fill="none" xmlns="http://www.w3.org/2000/svg">
<path fill-rule="evenodd" clip-rule="evenodd" d="M14.0579 2.33621H19.8838V0.636719H14.0579V2.33621V2.33621ZM15.438 6.04442C15.0668 6.42901 14.8327 6.95004 14.7369 7.60748H19.2681C19.2203 6.90586 18.9848 6.37574 18.5683 6.01064C18.1466 5.64813 17.6279 5.46753 17.0071 5.46753C16.3344 5.46753 15.8093 5.65983 15.438 6.04442V6.04442V6.04442ZM19.3704 3.76282C20.0727 4.07725 20.6509 4.57618 21.1063 5.25702C21.5215 5.8573 21.7879 6.55372 21.9095 7.345C21.9807 7.80755 22.0091 8.47799 21.9975 9.34983H14.6723C14.7163 10.362 15.063 11.0727 15.7253 11.4794C16.1262 11.7328 16.6087 11.8601 17.1753 11.8601C17.7716 11.8601 18.2592 11.7055 18.6331 11.3975C18.8387 11.2299 19.0198 10.9986 19.175 10.7024H21.8591C21.7879 11.3001 21.462 11.9095 20.8851 12.5279C19.9848 13.5089 18.7236 14 17.1028 14C15.7641 14 14.5831 13.5869 13.5625 12.7579C12.5367 11.9302 12.0271 10.5816 12.0271 8.71577C12.0271 6.9656 12.4889 5.62342 13.4112 4.68922C14.336 3.75762 15.5325 3.28857 17.0058 3.28857C17.8815 3.28857 18.6693 3.44709 19.3704 3.76282V3.76282V3.76282ZM2.70984 7.6438V11.2857H6.01088C6.60072 11.2857 7.06122 11.2052 7.38847 11.0454C7.98478 10.7465 8.28229 10.18 8.28229 9.34069C8.28229 8.62867 7.99513 8.14143 7.41693 7.87507C7.09355 7.72695 6.63953 7.649 6.05745 7.6438H2.70984V7.6438ZM2.70984 2.37122V5.3843H6.01606C6.6046 5.3843 7.0845 5.27126 7.45444 5.04518C7.8218 4.8191 8.00677 4.41892 8.00677 3.84723C8.00677 3.20927 7.76359 2.78959 7.27723 2.5843C6.85555 2.44268 6.32003 2.37122 5.6694 2.37122H2.70984V2.37122ZM10.0933 1.45522C10.5085 2.03601 10.7168 2.72984 10.7168 3.5393C10.7168 4.37216 10.5085 5.0439 10.0881 5.55063C9.85268 5.83387 9.50732 6.09374 9.05071 6.32761C9.74403 6.58227 10.2666 6.98376 10.6223 7.53336C10.9742 8.08167 11.1514 8.74951 11.1514 9.53429C11.1514 10.3438 10.9496 11.0701 10.5447 11.7119C10.2886 12.1368 9.96781 12.4954 9.58234 12.7865C9.14901 13.1204 8.63808 13.3478 8.04694 13.4725C7.45581 13.5959 6.81681 13.6557 6.12608 13.6557H0V0H6.56975C8.22803 0.0246868 9.40125 0.509327 10.0933 1.45522V1.45522V1.45522Z" fill="white"/>
</svg>
