<svg width="18" height="18" viewBox="0 0 18 18" fill="none" xmlns="http://www.w3.org/2000/svg">
<path fill-rule="evenodd" clip-rule="evenodd" d="M9 0C4.03704 0 0 4.0364 0 9C0 13.9636 4.03704 18 9 18C13.963 18 18 13.9636 18 9C18 4.0364 13.963 0 9 0ZM16.2839 10.3166C15.9506 12.1896 14.8827 13.8832 13.3333 15.0082C13.1975 14.2788 12.7963 12.3317 11.963 10.0137C13.9815 9.7294 15.7654 10.1744 16.2839 10.3166ZM5.74074 2.36744C6.10494 2.87431 7.24691 4.49382 8.35802 6.44093C5.29012 7.23214 2.57407 7.30014 1.80247 7.30632C2.30247 5.17376 3.75926 3.34409 5.74074 2.36744ZM10.1173 5.89698C9.04938 3.95604 7.90123 2.33036 7.49383 1.76786C7.98765 1.66277 8.49383 1.61332 9 1.61332C10.7593 1.61332 12.4568 2.24382 13.7963 3.38736C13.4877 3.77679 12.3765 5.01923 10.1173 5.89698ZM9.1358 7.88736C9.30864 8.22733 9.46914 8.56113 9.61728 8.88874C9.57407 8.9011 9.53086 8.91346 9.48765 8.93201C5.9321 10.0817 3.88889 12.987 3.37037 13.8029C2.22839 12.4615 1.60494 10.774 1.60494 9.01236C1.60494 8.98764 1.60494 8.96291 1.60494 8.93819C2.41358 8.94437 5.7037 8.89492 9.1358 7.88736ZM10.2469 10.4341C11.2099 12.9684 11.642 15.1071 11.7778 15.8736C10.8951 16.2321 9.96296 16.4176 9 16.4176C7.38272 16.4176 5.85185 15.9045 4.56173 14.9341C4.89506 14.3036 6.44444 11.7878 10.2469 10.4341ZM11.3889 8.53022C11.3519 8.4375 11.3086 8.34478 11.2716 8.24588C11.142 7.93681 10.9938 7.61538 10.8395 7.29396C13.1975 6.29876 14.4568 4.95742 14.8457 4.48146C15.7963 5.70536 16.3395 7.20742 16.3951 8.75275C15.8951 8.66003 14.5802 8.44368 13.037 8.44368C12.5062 8.4375 11.9506 8.46222 11.3889 8.53022Z" fill="white"/>
</svg>
