<svg width="18" height="18" viewBox="0 0 18 18" fill="none" xmlns="http://www.w3.org/2000/svg">
<path fill-rule="evenodd" clip-rule="evenodd" d="M5.28269 0.110454C3.81759 0.17656 2.54772 0.53478 1.52234 1.55584C0.493368 2.58226 0.139632 3.85702 0.0733627 5.30688C0.0321682 6.21181 -0.208731 13.0484 0.489786 14.8412C0.960837 16.0508 1.88861 16.9807 3.10922 17.4533C3.67878 17.6748 4.32894 17.8249 5.28269 17.8687C13.2574 18.2296 16.2136 18.0331 17.4602 14.8412C17.6814 14.2731 17.8336 13.6237 17.8757 12.6723C18.2402 4.67709 17.8166 2.94406 16.4267 1.55584C15.3243 0.456168 14.0276 -0.292432 5.28269 0.110454V0.110454ZM5.35506 16.2606C4.48192 16.2213 4.00818 16.0756 3.69206 15.9533C2.89682 15.6442 2.2995 15.0492 1.99233 14.2586C1.46039 12.8963 1.63681 6.42604 1.68427 5.37907C1.73084 4.35354 1.9386 3.41645 2.66219 2.69287C3.55773 1.79955 4.71476 1.36183 12.5928 1.71737C13.6208 1.76382 14.5603 1.97107 15.2856 2.69287C16.1812 3.58618 16.6254 4.75196 16.2636 12.5997C16.2242 13.4707 16.0782 13.9433 15.9555 14.2586C15.145 16.3356 13.2805 16.6241 5.35506 16.2606V16.2606ZM12.6818 4.22066C12.6818 4.81204 13.1627 5.29264 13.7564 5.29264C14.3501 5.29264 14.8319 4.81204 14.8319 4.22066C14.8319 3.62929 14.3501 3.14868 13.7564 3.14868C13.1627 3.14868 12.6818 3.62929 12.6818 4.22066V4.22066ZM4.37671 8.98912C4.37671 11.5226 6.43554 13.5763 8.97528 13.5763C11.515 13.5763 13.5738 11.5226 13.5738 8.98912C13.5738 6.45567 11.515 4.40283 8.97528 4.40283C6.43554 4.40283 4.37671 6.45567 4.37671 8.98912V8.98912ZM5.98999 8.98914C5.98999 7.34544 7.32613 6.01172 8.97481 6.01172C10.6235 6.01172 11.9596 7.34544 11.9596 8.98914C11.9596 10.6337 10.6235 11.9675 8.97481 11.9675C7.32613 11.9675 5.98999 10.6337 5.98999 8.98914V8.98914Z" fill="white"/>
</svg>
