<svg width="179" height="24" viewBox="0 0 179 24" fill="none" xmlns="http://www.w3.org/2000/svg">
<path d="M9.92 0L13.6543 0.00257719C13.6543 0.00257719 9.55798 11.4774 8.87527 13.4078C8.19256 15.3382 7.28227 16.7323 6.14442 17.5902C5.02407 18.466 3.62363 18.8593 1.94311 18.7699V15.5526C2.85339 15.5705 3.57111 15.3739 4.09628 14.9628C4.63895 14.5517 5.06783 13.8904 5.38293 12.9788L0 0.00257719L3.82079 0L7.11597 8.77207L9.92 0Z" transform="translate(165.093 5.21765)" fill="white"/>
<path d="M6.93216 13.8643C4.95405 13.8643 3.29978 13.1991 1.96936 11.8687C0.656455 10.5383 0 8.89277 0 6.93216C0 4.97155 0.656455 3.32604 1.96936 1.99562C3.29978 0.665208 4.95405 0 6.93216 0C8.21006 0 9.37417 0.306346 10.4245 0.919037C11.4748 1.53173 12.2713 2.35448 12.814 3.38731L9.89934 5.09409C9.63676 4.55142 9.23413 4.12254 8.69146 3.80744C8.1663 3.49234 7.57111 3.33479 6.9059 3.33479C5.89059 3.33479 5.05033 3.67615 4.38512 4.35886C3.71991 5.02407 3.38731 5.88183 3.38731 6.93216C3.38731 7.96498 3.71991 8.82275 4.38512 9.50547C5.05033 10.1707 5.89059 10.5033 6.9059 10.5033C7.58862 10.5033 8.19256 10.3545 8.71772 10.0569C9.26039 9.74179 9.66301 9.3129 9.9256 8.77023L12.8665 10.4508C12.2888 11.4836 11.4748 12.3151 10.4245 12.9453C9.37417 13.558 8.21006 13.8643 6.93216 13.8643Z" transform="translate(151.989 5.11279) rotate(-2)" fill="white"/>
<path d="M7.29978 0C8.73522 0 9.91684 0.4814 10.8446 1.4442C11.7899 2.407 12.2626 3.73742 12.2626 5.43545V13.8536H8.87527V5.85558C8.87527 4.9803 8.63894 4.3151 8.1663 3.85995C7.69365 3.38731 7.06345 3.15098 6.27571 3.15098C5.40043 3.15098 4.70022 3.42232 4.17505 3.96499C3.64989 4.50766 3.38731 5.32166 3.38731 6.407V13.8536H0V0H3.38731V1.83807C4.21006 0.612691 5.51422 0 7.29978 0Z" transform="translate(138.771 4.88403)" fill="white"/>
<path fill-rule="evenodd" clip-rule="evenodd" d="M6.93225 13.8643C8.87537 13.8643 10.5208 13.1991 11.8688 11.8687C12.5677 11.1698 13.0854 10.3908 13.4219 9.53175L10.1191 8.65527C9.95716 8.97498 9.74385 9.26715 9.47921 9.53176C8.79656 10.2144 7.94754 10.5558 6.93226 10.5558C5.91686 10.5558 5.06782 10.2145 4.38515 9.53174C4.26168 9.40503 4.14965 9.27197 4.04907 9.13258L10.0124 7.53765L13.422 6.6289C13.4219 5.72883 13.2283 5.14688 12.8504 4.15206C12.515 3.39733 12.0281 2.54656 11.3988 1.92545C10.0509 0.577479 8.87535 2.78676e-05 6.93223 0C4.98912 3.16032e-05 3.34355 0.673978 1.99565 2.02193C0.665239 3.35231 2.78676e-05 4.9891 0 6.93221C7.73441e-05 8.87525 0.665245 10.5208 1.99573 11.8687C3.34359 13.1992 4.98914 13.8643 6.93225 13.8643ZM3.41246 6.40115C3.3594 4.86029 4.37697 3.42786 5.93872 3.00942C7.50057 2.5909 9.09795 3.32259 9.82247 4.68362L3.41246 6.40115Z" transform="translate(125.887 3.552) rotate(13)" fill="white"/>
<path d="M10.7475 0H14.056V12.8665C14.056 14.8971 13.3821 16.4464 12.0342 17.5142C10.7037 18.582 9.09324 19.116 7.20265 19.116C5.78471 19.116 4.53307 18.8446 3.44773 18.302C2.37989 17.7593 1.55714 16.9628 0.979457 15.9125L3.86786 14.2582C4.53307 15.4836 5.67967 16.0963 7.30768 16.0963C8.37551 16.0963 9.21578 15.8162 9.82847 15.256C10.4412 14.6958 10.7475 13.8993 10.7475 12.8665V11.4486C9.74969 12.779 8.34926 13.4442 6.54619 13.4442C4.69062 13.4442 3.13263 12.7965 1.87224 11.5011C0.629348 10.1882 0.00790409 8.59518 0.00790409 6.7221C0.00790409 4.86652 0.638101 3.28227 1.89849 1.96936C3.15889 0.656455 4.70812 0 6.54619 0C8.34926 0 9.74969 0.665208 10.7475 1.99562V0ZM4.41928 9.32166C5.1195 9.98686 6.00352 10.3195 7.07136 10.3195C8.13919 10.3195 9.01446 9.98686 9.69718 9.32166C10.3974 8.63894 10.7475 7.77242 10.7475 6.7221C10.7475 5.68927 10.3974 4.84026 9.69718 4.17505C9.01446 3.49234 8.13919 3.15098 7.07136 3.15098C6.00352 3.15098 5.1195 3.49234 4.41928 4.17505C3.73657 4.84026 3.39521 5.68927 3.39521 6.7221C3.39521 7.77242 3.73657 8.63894 4.41928 9.32166Z" transform="translate(108.887 4.88403)" fill="white"/>
<path d="M11.8687 11.8687C10.5208 13.1991 8.87527 13.8643 6.93216 13.8643C4.98906 13.8643 3.34354 13.1991 1.99562 11.8687C0.665208 10.5208 0 8.87527 0 6.93216C0 4.98906 0.665208 3.3523 1.99562 2.02188C3.34354 0.67396 4.98906 0 6.93216 0C8.87527 0 10.5208 0.67396 11.8687 2.02188C13.2166 3.3523 13.8906 4.98906 13.8906 6.93216C13.8906 8.87527 13.2166 10.5208 11.8687 11.8687ZM4.38512 9.53172C5.06783 10.2144 5.91685 10.5558 6.93216 10.5558C7.94748 10.5558 8.79649 10.2144 9.47921 9.53172C10.1619 8.84901 10.5033 7.98249 10.5033 6.93216C10.5033 5.88183 10.1619 5.01531 9.47921 4.3326C8.79649 3.64989 7.94748 3.30853 6.93216 3.30853C5.91685 3.30853 5.06783 3.64989 4.38512 4.3326C3.71991 5.01531 3.38731 5.88183 3.38731 6.93216C3.38731 7.98249 3.71991 8.84901 4.38512 9.53172Z" transform="translate(108.887 4.88403)" fill="white"/>
<path d="M10.6608 0H14.0481V13.8643H10.6608V11.9475C9.64551 13.2254 8.21881 13.8643 6.38074 13.8643C4.63019 13.8643 3.12473 13.1991 1.86433 11.8687C0.621444 10.5208 0 8.87527 0 6.93216C0 4.98906 0.621444 3.3523 1.86433 2.02188C3.12473 0.67396 4.63019 0 6.38074 0C8.21881 0 9.64551 0.638949 10.6608 1.91685V0ZM4.41138 9.6105C5.09409 10.2932 5.96061 10.6346 7.01094 10.6346C8.06127 10.6346 8.92779 10.2932 9.6105 9.6105C10.3107 8.91028 10.6608 8.0175 10.6608 6.93216C10.6608 5.84682 10.3107 4.9628 9.6105 4.28008C8.92779 3.57987 8.06127 3.22976 7.01094 3.22976C5.96061 3.22976 5.09409 3.57987 4.41138 4.28008C3.72866 4.9628 3.38731 5.84682 3.38731 6.93216C3.38731 8.0175 3.72866 8.91028 4.41138 9.6105Z" transform="translate(93.6451 4.88403)" fill="white"/>
<path d="M11.8687 11.907C10.5208 13.2374 8.87527 13.9026 6.93216 13.9026C4.98906 13.9026 3.34354 13.2374 1.99562 11.907C0.665208 10.5591 0 8.91359 0 6.97048C0 5.02737 0.665208 3.39061 1.99562 2.0602C3.34354 0.712278 4.98906 0.0383184 6.93216 0.0383184C8.87527 0.0383184 10.5208 0.712278 11.8687 2.0602C13.2166 3.39061 13.8906 5.02737 13.8906 6.97048C13.8906 8.91359 13.2166 10.5591 11.8687 11.907ZM4.38512 9.57004C5.06783 10.2528 5.91685 10.5941 6.93216 10.5941C7.94748 10.5941 8.79649 10.2528 9.47921 9.57004C10.1619 8.88733 10.5033 8.02081 10.5033 6.97048C10.5033 5.92015 10.1619 5.05363 9.47921 4.37092C8.79649 3.68821 7.94748 3.34685 6.93216 3.34685C5.91685 3.34685 5.06783 3.68821 4.38512 4.37092C3.71991 5.05363 3.38731 5.92015 3.38731 6.97048C3.38731 8.02081 3.71991 8.88733 4.38512 9.57004Z" transform="translate(93.6451 4.88403)" fill="white"/>
<path d="M3.80744 3.80744C3.3698 4.24507 2.84464 4.46389 2.23195 4.46389C1.61926 4.46389 1.09409 4.24507 0.656455 3.80744C0.218818 3.3698 0 2.84464 0 2.23195C0 1.61926 0.218818 1.09409 0.656455 0.656455C1.09409 0.218818 1.61926 0 2.23195 0C2.84464 0 3.3698 0.218818 3.80744 0.656455C4.24507 1.09409 4.46389 1.61926 4.46389 2.23195C4.46389 2.84464 4.24507 3.3698 3.80744 3.80744Z" transform="translate(88.3116 14.2582)" fill="white"/>
<path fill-rule="evenodd" clip-rule="evenodd" d="M6.93225 13.8643C8.87537 13.8643 10.5208 13.1991 11.8688 11.8687C12.5677 11.1698 13.0854 10.3908 13.4219 9.53175L10.1191 8.65527C9.95716 8.97498 9.74385 9.26715 9.47921 9.53176C8.79656 10.2144 7.94754 10.5558 6.93226 10.5558C5.91686 10.5558 5.06782 10.2145 4.38515 9.53174C4.26168 9.40503 4.14965 9.27197 4.04907 9.13258L10.0124 7.53765L13.422 6.6289C13.4219 5.72883 13.2283 5.14688 12.8504 4.15206C12.515 3.39733 12.0281 2.54656 11.3988 1.92545C10.0509 0.577479 8.87535 2.78676e-05 6.93223 0C4.98912 3.16032e-05 3.34355 0.673978 1.99565 2.02193C0.665239 3.35231 2.78676e-05 4.9891 0 6.93221C7.73441e-05 8.87525 0.665245 10.5208 1.99573 11.8687C3.34359 13.1992 4.98914 13.8643 6.93225 13.8643ZM3.41269 6.4011C3.35964 4.86023 4.37721 3.42781 5.93896 3.00937C7.50081 2.59085 9.09819 3.32253 9.8227 4.68357L3.41269 6.4011Z" transform="translate(75.4107 3.552) rotate(13)" fill="white"/>
<path d="M13.8906 0H10.5033L10.5033 17.8138L13.8906 11.8162L13.8906 0Z" transform="translate(72.5622) scale(-1 1)" fill="white"/>
<path d="M11.8687 16.7527C10.5208 18.0831 8.87527 18.7483 6.93217 18.7483C4.98906 18.7483 3.34355 18.0831 1.99563 16.7527C0.665211 15.4048 3.41479e-06 13.7593 3.41479e-06 11.8162C3.41479e-06 9.87308 0.665211 8.23632 1.99563 6.9059C3.34355 5.55798 4.98906 4.88402 6.93217 4.88402C8.87527 4.88402 10.5208 5.55798 11.8687 6.9059C13.2166 8.23632 13.8906 9.87308 13.8906 11.8162C13.8906 13.7593 13.2166 15.4048 11.8687 16.7527ZM4.38512 14.4157C5.06783 15.0985 5.91685 15.4398 6.93217 15.4398C7.94748 15.4398 8.7965 15.0985 9.47921 14.4157C10.1619 13.733 10.5033 12.8665 10.5033 11.8162C10.5033 10.7659 10.1619 9.89934 9.47921 9.21663C8.7965 8.53391 7.94748 8.19256 6.93217 8.19256C5.91685 8.19256 5.06783 8.53391 4.38512 9.21663C3.71991 9.89934 3.38731 10.7659 3.38731 11.8162C3.38731 12.8665 3.71991 13.733 4.38512 14.4157Z" transform="translate(72.5622) scale(-1 1)" fill="white"/>
<path fill-rule="evenodd" clip-rule="evenodd" d="M6.93225 13.8643C8.87537 13.8643 10.5208 13.1991 11.8688 11.8687C12.5677 11.1698 13.0854 10.3908 13.4219 9.53175L10.1191 8.65527C9.95716 8.97498 9.74385 9.26715 9.47921 9.53176C8.79656 10.2144 7.94754 10.5558 6.93226 10.5558C5.91686 10.5558 5.06782 10.2145 4.38515 9.53174C4.26168 9.40503 4.14965 9.27197 4.04907 9.13258L10.0124 7.53765L13.422 6.6289C13.4219 5.72883 13.2283 5.14688 12.8504 4.15206C12.515 3.39733 12.0281 2.54656 11.3988 1.92545C10.0509 0.577479 8.87535 2.78676e-05 6.93223 0C4.98912 3.16032e-05 3.34355 0.673978 1.99565 2.02193C0.665239 3.35231 2.78676e-05 4.9891 0 6.93221C7.73441e-05 8.87525 0.665245 10.5208 1.99573 11.8687C3.34359 13.1992 4.98914 13.8643 6.93225 13.8643ZM3.41222 6.40121C3.35916 4.86034 4.37674 3.42792 5.93848 3.00948C7.50033 2.59095 9.09771 3.32264 9.82223 4.68368L3.41222 6.40121Z" transform="translate(45.7758 3.552) rotate(13)" fill="white"/>
<path d="M13.8906 0H10.5033L10.5033 17.8138L13.8906 11.8162L13.8906 0Z" transform="translate(28.9629)" fill="white"/>
<path d="M11.8687 16.7527C10.5208 18.0831 8.87527 18.7483 6.93217 18.7483C4.98906 18.7483 3.34355 18.0831 1.99563 16.7527C0.665211 15.4048 3.41479e-06 13.7593 3.41479e-06 11.8162C3.41479e-06 9.87308 0.665211 8.23632 1.99563 6.9059C3.34355 5.55798 4.98906 4.88402 6.93217 4.88402C8.87527 4.88402 10.5208 5.55798 11.8687 6.9059C13.2166 8.23632 13.8906 9.87308 13.8906 11.8162C13.8906 13.7593 13.2166 15.4048 11.8687 16.7527ZM4.38512 14.4157C5.06783 15.0985 5.91685 15.4398 6.93217 15.4398C7.94748 15.4398 8.7965 15.0985 9.47921 14.4157C10.1619 13.733 10.5033 12.8665 10.5033 11.8162C10.5033 10.7659 10.1619 9.89934 9.47921 9.21663C8.7965 8.53391 7.94748 8.19256 6.93217 8.19256C5.91685 8.19256 5.06783 8.53391 4.38512 9.21663C3.71991 9.89934 3.38731 10.7659 3.38731 11.8162C3.38731 12.8665 3.71991 13.733 4.38512 14.4157Z" transform="translate(28.9629)" fill="white"/>
<path d="M11.8687 11.8687C10.5208 13.1991 8.87527 13.8643 6.93216 13.8643C4.98906 13.8643 3.34354 13.1991 1.99562 11.8687C0.665208 10.5208 0 8.87527 0 6.93216C0 4.98906 0.665208 3.3523 1.99562 2.02188C3.34354 0.67396 4.98906 0 6.93216 0C8.87527 0 10.5208 0.67396 11.8687 2.02188C13.2166 3.3523 13.8906 4.98906 13.8906 6.93216C13.8906 8.87527 13.2166 10.5208 11.8687 11.8687ZM4.38512 9.53172C5.06783 10.2144 5.91685 10.5558 6.93216 10.5558C7.94748 10.5558 8.79649 10.2144 9.47921 9.53172C10.1619 8.84901 10.5033 7.98249 10.5033 6.93216C10.5033 5.88183 10.1619 5.01531 9.47921 4.3326C8.79649 3.64989 7.94748 3.30853 6.93216 3.30853C5.91685 3.30853 5.06783 3.64989 4.38512 4.3326C3.71991 5.01531 3.38731 5.88183 3.38731 6.93216C3.38731 7.98249 3.71991 8.84901 4.38512 9.53172Z" transform="translate(13.8976 4.88403)" fill="white"/>
<path d="M6.93216 13.8643C4.95405 13.8643 3.29978 13.1991 1.96936 11.8687C0.656455 10.5383 0 8.89277 0 6.93216C0 4.97155 0.656455 3.32604 1.96936 1.99562C3.29978 0.665208 4.95405 0 6.93216 0C8.21006 0 9.37417 0.306346 10.4245 0.919037C11.4748 1.53173 12.2713 2.35448 12.814 3.38731L9.89934 5.09409C9.63676 4.55142 9.23413 4.12254 8.69146 3.80744C8.1663 3.49234 7.57111 3.33479 6.9059 3.33479C5.89059 3.33479 5.05033 3.67615 4.38512 4.35886C3.71991 5.02407 3.38731 5.88183 3.38731 6.93216C3.38731 7.96498 3.71991 8.82275 4.38512 9.50547C5.05033 10.1707 5.89059 10.5033 6.9059 10.5033C7.58862 10.5033 8.19256 10.3545 8.71772 10.0569C9.26039 9.74179 9.66301 9.3129 9.9256 8.77023L12.8665 10.4508C12.2888 11.4836 11.4748 12.3151 10.4245 12.9453C9.37417 13.558 8.21006 13.8643 6.93216 13.8643Z" transform="translate(0 5.11279) rotate(-2)" fill="white"/>
</svg>
