<svg width="20" height="17" viewBox="0 0 20 17" fill="none" xmlns="http://www.w3.org/2000/svg">
<path fill-rule="evenodd" clip-rule="evenodd" d="M8.98897 2.52852V7.58249C8.98897 8.97267 7.85551 10.1036 6.46195 10.1036C5.06866 10.1036 3.93519 8.97267 3.93519 7.58249V2.53313H5.35209L2.67604 0L0 2.53313H1.41715V7.58249C1.41715 10.358 3.68023 12.616 6.46195 12.616C9.10901 12.616 11.2846 10.5712 11.4896 7.98173L11.507 5.04066H14.0338C15.4271 5.04066 16.5608 6.17184 16.5608 7.56202C16.5608 8.95219 15.4271 10.0834 14.0338 10.0834H12.5251C12.1785 10.0834 11.8446 10.1353 11.528 10.2285C10.9904 11.2491 10.1524 12.0883 9.13133 12.628C9.04027 12.9405 8.98897 13.2699 8.98897 13.6113V16.3514H11.507V13.6113C11.507 13.0511 11.9636 12.5955 12.5251 12.5955H14.0338C16.8155 12.5955 19.0788 10.3375 19.0788 7.56202C19.0788 4.78653 16.8155 2.52852 14.0338 2.52852H8.98897Z" fill="white"/>
</svg>
